# xmcd
#
# Track frame offsets: 
#        150
#        15149
#        24840
#        42341
#        56222
#        73994
#        90490
#        105189
#        119979
#        136560
#        145988
#        161026
#        172242
#        188096
#        198967
#        215105
#        230324
#        241960
#        258810
#        277323
#
# Disc length: 3878 seconds
#
# Revision: 0
# Processed by: cddbd v1.5.1PL0 Copyright (c) Steve Scherf et al.
# Submitted via: ExactAudioCopy v0.95a5
#
DISCID=200f2414
DTITLE=邓丽君 - 邓丽君成名经典
DYEAR=1995
DGENRE=Blues
TTITLE0=没良心的人
TTITLE1=分手的时候
TTITLE2=人儿不能留
TTITLE3=让我慢慢告诉你
TTITLE4=叫我如何不想你
TTITLE5=泪的小雨
TTITLE6=昨夜梦醒时
TTITLE7=泪的衣裳
TTITLE8=几时再回头
TTITLE9=忘也忘不了
TTITLE10=四个愿望
TTITLE11=几度花落时
TTITLE12=心声泪痕
TTITLE13=蔓丽,蔓丽我爱你
TTITLE14=一寸相思未了情
TTITLE15=露珠儿
TTITLE16=爱情那里来
TTITLE17=星夜的离别
TTITLE18=情难守
TTITLE19=谁来爱我
EXTD=
EXTT0=
EXTT1=
EXTT2=
EXTT3=
EXTT4=
EXTT5=
EXTT6=
EXTT7=
EXTT8=
EXTT9=
EXTT10=
EXTT11=
EXTT12=
EXTT13=
EXTT14=
EXTT15=
EXTT16=
EXTT17=
EXTT18=
EXTT19=
PLAYORDER=
